# Blender v2.79 (sub 0) OBJ File: 'buddha-scene-iron-concrete.blend'
# www.blender.org
mtllib buddha-scene-ton-source-sun.mtl
o gammatonsource_Icosphere
v 0.134950 17.206541 0.137826
v -11.654100 8.200611 -8.427319
v 4.637878 8.200617 -13.720999
v 14.706991 8.200547 0.137826
v 4.637878 8.200617 13.996651
v -11.654100 8.200611 8.702972
v 2.781685 14.773395 -8.008123
v -6.794431 14.773391 -4.896605
v -4.147724 9.479833 -13.042635
v -13.723852 9.479804 0.137826
v -6.794431 14.773391 5.172257
v 8.700169 14.773350 0.137826
v 11.346969 9.479810 -8.008152
v 2.781685 14.773395 8.283777
v 11.346969 9.479810 8.283804
v -4.147724 9.479833 13.318289
v 0.134950 0.914486 -16.154226
v -9.441286 0.914486 -13.042719
v 9.711185 0.914486 -13.042719
v 9.711185 0.914486 13.318371
v -9.441286 0.914486 13.318371
v 0.134950 0.914486 16.429880
vn 0.1024 -0.9435 0.3151
vn 0.7002 -0.6617 0.2680
vn -0.2680 -0.9435 0.1947
vn -0.2680 -0.9435 -0.1947
vn 0.1024 -0.9435 -0.3151
vn 0.0247 -0.3304 0.9435
vn -0.5746 -0.3304 -0.7488
vn 0.5346 -0.3304 -0.7779
vn -0.3066 -0.1256 0.9435
vn -0.3066 -0.1256 -0.9435
vn 0.3035 -0.1876 -0.9342
vn 0.0247 -0.3304 -0.9435
vn -0.5746 -0.3304 0.7488
vn 0.3035 -0.1876 0.9342
vn 0.5346 -0.3304 0.7779
vn 0.4713 -0.6617 -0.5831
vn 0.1876 -0.7947 -0.5773
vn -0.0385 -0.6617 -0.7488
vn -0.4089 -0.6617 -0.6284
vn -0.4911 -0.7947 -0.3568
vn -0.7240 -0.6617 -0.1947
vn -0.7240 -0.6617 0.1947
vn -0.4911 -0.7947 0.3568
vn -0.4089 -0.6617 0.6284
vn 0.7002 -0.6617 -0.2680
vn 0.6071 -0.7947 0.0000
vn 0.3313 -0.9435 0.0000
vn -0.0385 -0.6617 0.7488
vn 0.1876 -0.7947 0.5773
vn 0.4713 -0.6617 0.5831
usemtl gammaton-source
s off
f 1//1 8//1 7//1
f 2//2 8//2 10//2
f 1//3 7//3 12//3
f 1//4 12//4 14//4
f 1//5 14//5 11//5
f 3//6 9//6 17//6
f 5//7 15//7 20//7
f 6//8 16//8 21//8
f 3//9 17//9 19//9
f 5//10 20//10 22//10
f 21//11 16//11 22//11
f 16//12 5//12 22//12
f 13//13 3//13 19//13
f 17//14 9//14 18//14
f 9//15 2//15 18//15
f 11//16 16//16 6//16
f 11//17 14//17 16//17
f 14//18 5//18 16//18
f 14//19 15//19 5//19
f 14//20 12//20 15//20
f 12//21 4//21 15//21
f 12//22 13//22 4//22
f 12//23 7//23 13//23
f 7//24 3//24 13//24
f 10//25 11//25 6//25
f 10//26 8//26 11//26
f 8//27 1//27 11//27
f 7//28 9//28 3//28
f 7//29 8//29 9//29
f 8//30 2//30 9//30
