# Blender v2.79 (sub 0) OBJ File: ''
# www.blender.org
mtllib sky-disk.mtl
o SkyDisk
v 0.591616 9.981142 -2.974264
v 1.160498 9.898405 -5.834225
v 1.684782 9.764048 -8.469980
v 2.144321 9.583231 -10.780240
v 2.521456 9.362907 -12.676221
v 2.801691 9.111541 -14.085060
v 2.974259 8.838791 -14.952620
v 1.160499 9.981142 -2.801696
v 2.276401 9.898405 -5.495719
v 3.304821 9.764048 -7.978547
v 4.206239 9.583231 -10.154763
v 4.946014 9.362907 -11.940739
v 5.495716 9.111541 -13.267837
v 5.834222 8.838791 -14.085059
v 1.684784 9.981142 -2.521459
v 3.304822 9.898405 -4.946017
v 4.797857 9.764048 -7.180502
v 6.106514 9.583231 -9.139047
v 7.180500 9.362907 -10.746381
v 7.978543 9.111541 -11.940738
v 8.469976 8.838791 -12.676218
v 2.144324 9.981142 -2.144325
v 4.206241 9.898405 -4.206242
v 6.106514 9.764048 -6.106514
v 7.772118 9.583231 -7.772119
v 9.139043 9.362907 -9.139045
v 10.154760 9.111541 -10.154762
v 10.780234 8.838791 -10.780237
v 2.521459 9.981142 -1.684784
v 4.946017 9.898405 -3.304823
v 7.180501 9.764048 -4.797857
v 9.139043 9.583231 -6.106514
v 10.746378 9.362907 -7.180500
v 11.940735 9.111541 -7.978544
v 12.676215 8.838791 -8.469976
v 2.801695 9.981142 -1.160499
v 5.495719 9.898405 -2.276401
v 7.978545 9.764048 -3.304821
v 10.154760 9.583231 -4.206239
v 11.940736 9.362907 -4.946013
v 13.267835 9.111541 -5.495717
v 14.085055 8.838791 -5.834219
v 2.974263 9.981142 -0.591616
v 5.834224 9.898405 -1.160498
v 8.469978 9.764048 -1.684783
v 10.780236 9.583231 -2.144322
v 12.676217 9.362907 -2.521455
v 14.085056 9.111541 -2.801692
v 14.952615 8.838791 -2.974258
v 3.032532 9.981142 0.000002
v 5.948523 9.898405 0.000001
v 8.635915 9.764048 0.000001
v 10.991433 9.583231 0.000001
v 12.924557 9.362907 0.000002
v 14.360998 9.111541 0.000001
v 15.245552 8.838791 0.000003
v 2.974263 9.981142 0.591620
v 5.834224 9.898405 1.160501
v 8.469978 9.764048 1.684785
v 10.780234 9.583231 2.144324
v 12.676215 9.362907 2.521458
v 14.085056 9.111541 2.801693
v 14.952613 8.838791 2.974263
v 2.801694 9.981142 1.160502
v 5.495718 9.898405 2.276403
v 7.978545 9.764048 3.304824
v 10.154760 9.583231 4.206242
v 11.940733 9.362907 4.946017
v 13.267835 9.111541 5.495718
v 14.085052 8.838791 5.834224
v 2.521457 9.981142 1.684787
v 4.946016 9.898405 3.304824
v 7.180500 9.764048 4.797860
v 9.139042 9.583231 6.106515
v 10.746375 9.362907 7.180503
v 11.940734 9.111541 7.978545
v 12.676212 8.838791 8.469978
v 2.144323 9.981142 2.144326
v 4.206240 9.898405 4.206243
v 6.106513 9.764048 6.106517
v 7.772116 9.583231 7.772120
v 9.139039 9.362907 9.139044
v 10.154760 9.111541 10.154760
v 10.780231 8.838791 10.780234
v 1.684783 9.981142 2.521460
v 3.304821 9.898405 4.946018
v 4.797856 9.764048 7.180503
v 6.106512 9.583231 9.139044
v 7.180497 9.362907 10.746378
v 7.978543 9.111541 11.940736
v 8.469973 8.838791 12.676215
v 1.160498 9.981142 2.801697
v 2.276400 9.898405 5.495720
v 3.304820 9.764048 7.978548
v 4.206237 9.583231 10.154760
v 4.946011 9.362907 11.940735
v 5.495716 9.111541 13.267834
v 5.834218 8.838791 14.085055
v 0.591616 9.981142 2.974265
v 1.160498 9.898405 5.834225
v 1.684782 9.764048 8.469980
v 2.144320 9.583231 10.780236
v 2.521453 9.362907 12.676215
v 2.801691 9.111541 14.085057
v 2.974257 8.838791 14.952615
v -0.000002 9.981142 3.032534
v -0.000001 9.898405 5.948524
v -0.000001 9.764048 8.635915
v -0.000002 9.583231 10.991433
v -0.000003 9.362907 12.924555
v -0.000001 9.111541 14.360998
v -0.000003 8.838791 15.245552
v -0.591620 9.981142 2.974265
v -1.160500 9.898405 5.834224
v -1.684785 9.764048 8.469980
v -2.144325 9.583231 10.780234
v -2.521459 9.362907 12.676213
v -2.801693 9.111541 14.085057
v -2.974263 8.838791 14.952613
v -0.000004 10.009079 0.000006
v -1.160502 9.981142 2.801696
v -2.276402 9.898405 5.495719
v -3.304823 9.764048 7.978548
v -4.206242 9.583231 10.154760
v -4.946016 9.362907 11.940730
v -5.495718 9.111541 13.267834
v -5.834223 8.838791 14.085052
v -1.684787 9.981142 2.521460
v -3.304823 9.898405 4.946016
v -4.797859 9.764048 7.180503
v -6.106515 9.583231 9.139042
v -7.180501 9.362907 10.746372
v -7.978545 9.111541 11.940735
v -8.469979 8.838791 12.676212
v -2.144326 9.981142 2.144325
v -4.206242 9.898405 4.206241
v -6.106515 9.764048 6.106516
v -7.772119 9.583231 7.772117
v -9.139043 9.362907 9.139037
v -10.154762 9.111541 10.154760
v -10.780237 8.838791 10.780231
v -2.521460 9.981142 1.684786
v -4.946016 9.898405 3.304821
v -7.180502 9.764048 4.797859
v -9.139045 9.583231 6.106514
v -10.746377 9.362907 7.180497
v -11.940737 9.111541 7.978545
v -12.676215 8.838791 8.469973
v -2.801696 9.981142 1.160501
v -5.495718 9.898405 2.276401
v -7.978546 9.764048 3.304822
v -10.154762 9.583231 4.206239
v -11.940733 9.362907 4.946012
v -13.267836 9.111541 5.495718
v -14.085055 8.838791 5.834218
v -2.974265 9.981142 0.591619
v -5.834222 9.898405 1.160500
v -8.469979 9.764048 1.684784
v -10.780238 9.583231 2.144321
v -12.676214 9.362907 2.521454
v -14.085059 9.111541 2.801693
v -14.952614 8.838791 2.974257
v -3.032534 9.981142 0.000001
v -5.948522 9.898405 0.000001
v -8.635916 9.764048 0.000001
v -10.991435 9.583231 -0.000001
v -12.924556 9.362907 -0.000001
v -14.361001 9.111541 0.000001
v -15.245552 8.838791 -0.000002
v -2.974264 9.981142 -0.591616
v -5.834222 9.898405 -1.160498
v -8.469979 9.764048 -1.684782
v -10.780237 9.583231 -2.144323
v -12.676212 9.362907 -2.521456
v -14.085058 9.111541 -2.801691
v -14.952611 8.838791 -2.974261
v -2.801696 9.981142 -1.160498
v -5.495718 9.898405 -2.276399
v -7.978543 9.764048 -3.304820
v -10.154761 9.583231 -4.206240
v -11.940728 9.362907 -4.946013
v -13.267836 9.111541 -5.495714
v -14.085051 8.838791 -5.834220
v -2.521460 9.981142 -1.684783
v -4.946015 9.898405 -3.304820
v -7.180499 9.764048 -4.797855
v -9.139043 9.583231 -6.106513
v -10.746372 9.362907 -7.180497
v -11.940736 9.111541 -7.978541
v -12.676210 8.838791 -8.469975
v -2.144325 9.981142 -2.144322
v -4.206239 9.898405 -4.206237
v -6.106513 9.764048 -6.106511
v -7.772117 9.583231 -7.772116
v -9.139038 9.362907 -9.139040
v -10.154762 9.111541 -10.154759
v -10.780231 8.838791 -10.780232
v -1.684786 9.981142 -2.521456
v -3.304821 9.898405 -4.946012
v -4.797856 9.764048 -7.180497
v -6.106512 9.583231 -9.139042
v -7.180494 9.362907 -10.746373
v -7.978543 9.111541 -11.940733
v -8.469971 8.838791 -12.676210
v -1.160501 9.981142 -2.801693
v -2.276401 9.898405 -5.495714
v -3.304821 9.764048 -7.978540
v -4.206239 9.583231 -10.154760
v -4.946009 9.362907 -11.940729
v -5.495717 9.111541 -13.267831
v -5.834216 8.838791 -14.085049
v -0.591619 9.981142 -2.974261
v -1.160499 9.898405 -5.834219
v -1.684783 9.764048 -8.469974
v -2.144321 9.583231 -10.780234
v -2.521452 9.362907 -12.676209
v -2.801693 9.111541 -14.085054
v -2.974257 8.838791 -14.952607
v -0.000001 9.981142 -3.032530
v -0.000001 9.898405 -5.948517
v -0.000000 9.764048 -8.635910
v 0.000001 9.583231 -10.991432
v 0.000002 9.362907 -12.924549
v -0.000001 9.111541 -14.360996
v 0.000002 8.838791 -15.245544
vn 0.0000 -0.9954 0.0960
vn -0.0187 -0.9954 0.0942
vn -0.0125 -0.9979 0.0628
vn 0.0000 -0.9979 0.0641
vn 0.0000 -0.9895 0.1447
vn -0.0282 -0.9895 0.1419
vn 0.0000 -0.9713 0.2377
vn -0.0464 -0.9713 0.2331
vn 0.0000 -0.9556 0.2947
vn -0.0575 -0.9556 0.2890
vn 0.0000 -0.9998 0.0194
vn -0.0038 -0.9998 0.0190
vn 0.0000 -1.0000 0.0000
vn 0.0000 -0.9992 0.0398
vn -0.0078 -0.9992 0.0390
vn -0.0245 -0.9979 0.0592
vn -0.0152 -0.9992 0.0368
vn -0.0367 -0.9954 0.0887
vn -0.0554 -0.9895 0.1337
vn -0.0909 -0.9713 0.2196
vn -0.1127 -0.9556 0.2722
vn -0.0074 -0.9998 0.0179
vn -0.1637 -0.9556 0.2450
vn -0.1320 -0.9713 0.1976
vn -0.0107 -0.9998 0.0161
vn -0.0221 -0.9992 0.0331
vn -0.0356 -0.9979 0.0533
vn -0.0533 -0.9954 0.0798
vn -0.0804 -0.9895 0.1203
vn -0.0453 -0.9979 0.0453
vn -0.0281 -0.9992 0.0281
vn -0.0679 -0.9954 0.0679
vn -0.1023 -0.9895 0.1023
vn -0.1681 -0.9713 0.1681
vn -0.2083 -0.9556 0.2083
vn -0.0137 -0.9998 0.0137
vn -0.2450 -0.9556 0.1637
vn -0.1976 -0.9713 0.1320
vn -0.0161 -0.9998 0.0107
vn -0.0331 -0.9992 0.0221
vn -0.0533 -0.9979 0.0356
vn -0.0798 -0.9954 0.0533
vn -0.1203 -0.9895 0.0804
vn -0.0887 -0.9954 0.0367
vn -0.0592 -0.9979 0.0245
vn -0.1337 -0.9895 0.0554
vn -0.2196 -0.9713 0.0909
vn -0.2722 -0.9556 0.1127
vn -0.0179 -0.9998 0.0074
vn -0.0368 -0.9992 0.0152
vn -0.0190 -0.9998 0.0038
vn -0.0390 -0.9992 0.0078
vn -0.0628 -0.9979 0.0125
vn -0.0942 -0.9954 0.0187
vn -0.1419 -0.9895 0.0282
vn -0.2331 -0.9713 0.0464
vn -0.2890 -0.9556 0.0575
vn -0.0960 -0.9954 0.0000
vn -0.0641 -0.9979 0.0000
vn -0.1447 -0.9895 0.0000
vn -0.2377 -0.9713 0.0000
vn -0.2947 -0.9556 0.0000
vn -0.0194 -0.9998 0.0000
vn -0.0398 -0.9992 0.0000
vn -0.0190 -0.9998 -0.0038
vn -0.0390 -0.9992 -0.0078
vn -0.0628 -0.9979 -0.0125
vn -0.0942 -0.9954 -0.0187
vn -0.1419 -0.9895 -0.0282
vn -0.2331 -0.9713 -0.0464
vn -0.2890 -0.9556 -0.0575
vn -0.1337 -0.9895 -0.0554
vn -0.0887 -0.9954 -0.0367
vn -0.2196 -0.9713 -0.0909
vn -0.2722 -0.9556 -0.1127
vn -0.0179 -0.9998 -0.0074
vn -0.0368 -0.9992 -0.0152
vn -0.0592 -0.9979 -0.0245
vn -0.0331 -0.9992 -0.0221
vn -0.0161 -0.9998 -0.0107
vn -0.0533 -0.9979 -0.0356
vn -0.0798 -0.9954 -0.0533
vn -0.1203 -0.9895 -0.0804
vn -0.1976 -0.9713 -0.1320
vn -0.2450 -0.9556 -0.1637
vn -0.1681 -0.9713 -0.1681
vn -0.1023 -0.9895 -0.1023
vn -0.2083 -0.9556 -0.2083
vn -0.0137 -0.9998 -0.0137
vn -0.0281 -0.9992 -0.0281
vn -0.0453 -0.9979 -0.0453
vn -0.0679 -0.9954 -0.0679
vn -0.0221 -0.9992 -0.0331
vn -0.0107 -0.9998 -0.0161
vn -0.0356 -0.9979 -0.0533
vn -0.0533 -0.9954 -0.0798
vn -0.0804 -0.9895 -0.1203
vn -0.1320 -0.9713 -0.1976
vn -0.1637 -0.9556 -0.2450
vn -0.0909 -0.9713 -0.2196
vn -0.0554 -0.9895 -0.1337
vn -0.1127 -0.9556 -0.2722
vn -0.0074 -0.9998 -0.0179
vn -0.0152 -0.9992 -0.0368
vn -0.0245 -0.9979 -0.0592
vn -0.0367 -0.9954 -0.0887
vn -0.0125 -0.9979 -0.0628
vn -0.0078 -0.9992 -0.0390
vn -0.0187 -0.9954 -0.0942
vn -0.0282 -0.9895 -0.1419
vn -0.0464 -0.9713 -0.2331
vn -0.0575 -0.9556 -0.2890
vn -0.0038 -0.9998 -0.0190
vn 0.0000 -0.9556 -0.2947
vn 0.0000 -0.9713 -0.2377
vn 0.0000 -0.9998 -0.0194
vn 0.0000 -0.9992 -0.0398
vn 0.0000 -0.9979 -0.0641
vn 0.0000 -0.9954 -0.0960
vn 0.0000 -0.9895 -0.1447
vn 0.0125 -0.9979 -0.0628
vn 0.0078 -0.9992 -0.0390
vn 0.0187 -0.9954 -0.0942
vn 0.0282 -0.9895 -0.1419
vn 0.0464 -0.9713 -0.2331
vn 0.0575 -0.9556 -0.2890
vn 0.0038 -0.9998 -0.0190
vn 0.1127 -0.9556 -0.2722
vn 0.0909 -0.9713 -0.2196
vn 0.0074 -0.9998 -0.0179
vn 0.0152 -0.9992 -0.0368
vn 0.0245 -0.9979 -0.0592
vn 0.0367 -0.9954 -0.0887
vn 0.0554 -0.9895 -0.1337
vn 0.0533 -0.9954 -0.0798
vn 0.0356 -0.9979 -0.0533
vn 0.0804 -0.9895 -0.1203
vn 0.1320 -0.9713 -0.1976
vn 0.1637 -0.9556 -0.2450
vn 0.0107 -0.9998 -0.0161
vn 0.0221 -0.9992 -0.0331
vn 0.0137 -0.9998 -0.0137
vn 0.0281 -0.9992 -0.0281
vn 0.0453 -0.9979 -0.0453
vn 0.0679 -0.9954 -0.0679
vn 0.1023 -0.9895 -0.1023
vn 0.1681 -0.9713 -0.1681
vn 0.2083 -0.9556 -0.2083
vn 0.1203 -0.9895 -0.0804
vn 0.0798 -0.9954 -0.0533
vn 0.1976 -0.9713 -0.1320
vn 0.2450 -0.9556 -0.1637
vn 0.0161 -0.9998 -0.0107
vn 0.0331 -0.9992 -0.0221
vn 0.0533 -0.9979 -0.0356
vn 0.0179 -0.9998 -0.0074
vn 0.0368 -0.9992 -0.0152
vn 0.0592 -0.9979 -0.0245
vn 0.0887 -0.9954 -0.0367
vn 0.1337 -0.9895 -0.0554
vn 0.2196 -0.9713 -0.0909
vn 0.2722 -0.9556 -0.1127
vn 0.1419 -0.9895 -0.0282
vn 0.0942 -0.9954 -0.0187
vn 0.2331 -0.9713 -0.0464
vn 0.2890 -0.9556 -0.0575
vn 0.0190 -0.9998 -0.0038
vn 0.0390 -0.9992 -0.0078
vn 0.0628 -0.9979 -0.0125
vn 0.0398 -0.9992 0.0000
vn 0.0194 -0.9998 0.0000
vn 0.0641 -0.9979 0.0000
vn 0.0960 -0.9954 0.0000
vn 0.1447 -0.9895 0.0000
vn 0.2377 -0.9713 0.0000
vn 0.2947 -0.9556 0.0000
vn 0.2331 -0.9713 0.0464
vn 0.1419 -0.9895 0.0282
vn 0.2890 -0.9556 0.0575
vn 0.0190 -0.9998 0.0038
vn 0.0390 -0.9992 0.0078
vn 0.0628 -0.9979 0.0125
vn 0.0942 -0.9954 0.0187
vn 0.0368 -0.9992 0.0152
vn 0.0179 -0.9998 0.0074
vn 0.0592 -0.9979 0.0245
vn 0.0887 -0.9954 0.0367
vn 0.1337 -0.9895 0.0554
vn 0.2196 -0.9713 0.0909
vn 0.2722 -0.9556 0.1127
vn 0.1976 -0.9713 0.1320
vn 0.1203 -0.9895 0.0804
vn 0.2450 -0.9556 0.1637
vn 0.0161 -0.9998 0.0107
vn 0.0331 -0.9992 0.0221
vn 0.0533 -0.9979 0.0356
vn 0.0798 -0.9954 0.0533
vn 0.0453 -0.9979 0.0453
vn 0.0281 -0.9992 0.0281
vn 0.0679 -0.9954 0.0679
vn 0.1023 -0.9895 0.1023
vn 0.1681 -0.9713 0.1681
vn 0.2083 -0.9556 0.2083
vn 0.0137 -0.9998 0.0137
vn 0.1637 -0.9556 0.2450
vn 0.1320 -0.9713 0.1976
vn 0.0107 -0.9998 0.0161
vn 0.0221 -0.9992 0.0331
vn 0.0356 -0.9979 0.0533
vn 0.0533 -0.9954 0.0798
vn 0.0804 -0.9895 0.1203
vn 0.0367 -0.9954 0.0887
vn 0.0245 -0.9979 0.0592
vn 0.0554 -0.9895 0.1337
vn 0.0909 -0.9713 0.2196
vn 0.1127 -0.9556 0.2722
vn 0.0074 -0.9998 0.0179
vn 0.0152 -0.9992 0.0368
vn 0.0038 -0.9998 0.0190
vn 0.0078 -0.9992 0.0390
vn 0.0125 -0.9979 0.0628
vn 0.0187 -0.9954 0.0942
vn 0.0282 -0.9895 0.1419
vn 0.0464 -0.9713 0.2331
vn 0.0575 -0.9556 0.2890
usemtl None
s 1
f 222//1 4//2 3//3 221//4
f 223//5 5//6 4//2 222//1
f 224//7 6//8 5//6 223//5
f 225//9 7//10 6//8 224//7
f 219//11 1//12 120//13
f 220//14 2//15 1//12 219//11
f 221//4 3//3 2//15 220//14
f 3//3 10//16 9//17 2//15
f 4//2 11//18 10//16 3//3
f 5//6 12//19 11//18 4//2
f 6//8 13//20 12//19 5//6
f 7//10 14//21 13//20 6//8
f 1//12 8//22 120//13
f 2//15 9//17 8//22 1//12
f 14//21 21//23 20//24 13//20
f 8//22 15//25 120//13
f 9//17 16//26 15//25 8//22
f 10//16 17//27 16//26 9//17
f 11//18 18//28 17//27 10//16
f 12//19 19//29 18//28 11//18
f 13//20 20//24 19//29 12//19
f 17//27 24//30 23//31 16//26
f 18//28 25//32 24//30 17//27
f 19//29 26//33 25//32 18//28
f 20//24 27//34 26//33 19//29
f 21//23 28//35 27//34 20//24
f 15//25 22//36 120//13
f 16//26 23//31 22//36 15//25
f 28//35 35//37 34//38 27//34
f 22//36 29//39 120//13
f 23//31 30//40 29//39 22//36
f 24//30 31//41 30//40 23//31
f 25//32 32//42 31//41 24//30
f 26//33 33//43 32//42 25//32
f 27//34 34//38 33//43 26//33
f 32//42 39//44 38//45 31//41
f 33//43 40//46 39//44 32//42
f 34//38 41//47 40//46 33//43
f 35//37 42//48 41//47 34//38
f 29//39 36//49 120//13
f 30//40 37//50 36//49 29//39
f 31//41 38//45 37//50 30//40
f 36//49 43//51 120//13
f 37//50 44//52 43//51 36//49
f 38//45 45//53 44//52 37//50
f 39//44 46//54 45//53 38//45
f 40//46 47//55 46//54 39//44
f 41//47 48//56 47//55 40//46
f 42//48 49//57 48//56 41//47
f 46//54 53//58 52//59 45//53
f 47//55 54//60 53//58 46//54
f 48//56 55//61 54//60 47//55
f 49//57 56//62 55//61 48//56
f 43//51 50//63 120//13
f 44//52 51//64 50//63 43//51
f 45//53 52//59 51//64 44//52
f 50//63 57//65 120//13
f 51//64 58//66 57//65 50//63
f 52//59 59//67 58//66 51//64
f 53//58 60//68 59//67 52//59
f 54//60 61//69 60//68 53//58
f 55//61 62//70 61//69 54//60
f 56//62 63//71 62//70 55//61
f 61//69 68//72 67//73 60//68
f 62//70 69//74 68//72 61//69
f 63//71 70//75 69//74 62//70
f 57//65 64//76 120//13
f 58//66 65//77 64//76 57//65
f 59//67 66//78 65//77 58//66
f 60//68 67//73 66//78 59//67
f 65//77 72//79 71//80 64//76
f 66//78 73//81 72//79 65//77
f 67//73 74//82 73//81 66//78
f 68//72 75//83 74//82 67//73
f 69//74 76//84 75//83 68//72
f 70//75 77//85 76//84 69//74
f 64//76 71//80 120//13
f 76//84 83//86 82//87 75//83
f 77//85 84//88 83//86 76//84
f 71//80 78//89 120//13
f 72//79 79//90 78//89 71//80
f 73//81 80//91 79//90 72//79
f 74//82 81//92 80//91 73//81
f 75//83 82//87 81//92 74//82
f 79//90 86//93 85//94 78//89
f 80//91 87//95 86//93 79//90
f 81//92 88//96 87//95 80//91
f 82//87 89//97 88//96 81//92
f 83//86 90//98 89//97 82//87
f 84//88 91//99 90//98 83//86
f 78//89 85//94 120//13
f 90//98 97//100 96//101 89//97
f 91//99 98//102 97//100 90//98
f 85//94 92//103 120//13
f 86//93 93//104 92//103 85//94
f 87//95 94//105 93//104 86//93
f 88//96 95//106 94//105 87//95
f 89//97 96//101 95//106 88//96
f 94//105 101//107 100//108 93//104
f 95//106 102//109 101//107 94//105
f 96//101 103//110 102//109 95//106
f 97//100 104//111 103//110 96//101
f 98//102 105//112 104//111 97//100
f 92//103 99//113 120//13
f 93//104 100//108 99//113 92//103
f 105//112 112//114 111//115 104//111
f 99//113 106//116 120//13
f 100//108 107//117 106//116 99//113
f 101//107 108//118 107//117 100//108
f 102//109 109//119 108//118 101//107
f 103//110 110//120 109//119 102//109
f 104//111 111//115 110//120 103//110
f 108//118 115//121 114//122 107//117
f 109//119 116//123 115//121 108//118
f 110//120 117//124 116//123 109//119
f 111//115 118//125 117//124 110//120
f 112//114 119//126 118//125 111//115
f 106//116 113//127 120//13
f 107//117 114//122 113//127 106//116
f 119//126 127//128 126//129 118//125
f 113//127 121//130 120//13
f 114//122 122//131 121//130 113//127
f 115//121 123//132 122//131 114//122
f 116//123 124//133 123//132 115//121
f 117//124 125//134 124//133 116//123
f 118//125 126//129 125//134 117//124
f 124//133 131//135 130//136 123//132
f 125//134 132//137 131//135 124//133
f 126//129 133//138 132//137 125//134
f 127//128 134//139 133//138 126//129
f 121//130 128//140 120//13
f 122//131 129//141 128//140 121//130
f 123//132 130//136 129//141 122//131
f 128//140 135//142 120//13
f 129//141 136//143 135//142 128//140
f 130//136 137//144 136//143 129//141
f 131//135 138//145 137//144 130//136
f 132//137 139//146 138//145 131//135
f 133//138 140//147 139//146 132//137
f 134//139 141//148 140//147 133//138
f 139//146 146//149 145//150 138//145
f 140//147 147//151 146//149 139//146
f 141//148 148//152 147//151 140//147
f 135//142 142//153 120//13
f 136//143 143//154 142//153 135//142
f 137//144 144//155 143//154 136//143
f 138//145 145//150 144//155 137//144
f 142//153 149//156 120//13
f 143//154 150//157 149//156 142//153
f 144//155 151//158 150//157 143//154
f 145//150 152//159 151//158 144//155
f 146//149 153//160 152//159 145//150
f 147//151 154//161 153//160 146//149
f 148//152 155//162 154//161 147//151
f 153//160 160//163 159//164 152//159
f 154//161 161//165 160//163 153//160
f 155//162 162//166 161//165 154//161
f 149//156 156//167 120//13
f 150//157 157//168 156//167 149//156
f 151//158 158//169 157//168 150//157
f 152//159 159//164 158//169 151//158
f 157//168 164//170 163//171 156//167
f 158//169 165//172 164//170 157//168
f 159//164 166//173 165//172 158//169
f 160//163 167//174 166//173 159//164
f 161//165 168//175 167//174 160//163
f 162//166 169//176 168//175 161//165
f 156//167 163//171 120//13
f 168//175 175//177 174//178 167//174
f 169//176 176//179 175//177 168//175
f 163//171 170//180 120//13
f 164//170 171//181 170//180 163//171
f 165//172 172//182 171//181 164//170
f 166//173 173//183 172//182 165//172
f 167//174 174//178 173//183 166//173
f 171//181 178//184 177//185 170//180
f 172//182 179//186 178//184 171//181
f 173//183 180//187 179//186 172//182
f 174//178 181//188 180//187 173//183
f 175//177 182//189 181//188 174//178
f 176//179 183//190 182//189 175//177
f 170//180 177//185 120//13
f 182//189 189//191 188//192 181//188
f 183//190 190//193 189//191 182//189
f 177//185 184//194 120//13
f 178//184 185//195 184//194 177//185
f 179//186 186//196 185//195 178//184
f 180//187 187//197 186//196 179//186
f 181//188 188//192 187//197 180//187
f 186//196 193//198 192//199 185//195
f 187//197 194//200 193//198 186//196
f 188//192 195//201 194//200 187//197
f 189//191 196//202 195//201 188//192
f 190//193 197//203 196//202 189//191
f 184//194 191//204 120//13
f 185//195 192//199 191//204 184//194
f 197//203 204//205 203//206 196//202
f 191//204 198//207 120//13
f 192//199 199//208 198//207 191//204
f 193//198 200//209 199//208 192//199
f 194//200 201//210 200//209 193//198
f 195//201 202//211 201//210 194//200
f 196//202 203//206 202//211 195//201
f 201//210 208//212 207//213 200//209
f 202//211 209//214 208//212 201//210
f 203//206 210//215 209//214 202//211
f 204//205 211//216 210//215 203//206
f 198//207 205//217 120//13
f 199//208 206//218 205//217 198//207
f 200//209 207//213 206//218 199//208
f 205//217 212//219 120//13
f 206//218 213//220 212//219 205//217
f 207//213 214//221 213//220 206//218
f 208//212 215//222 214//221 207//213
f 209//214 216//223 215//222 208//212
f 210//215 217//224 216//223 209//214
f 211//216 218//225 217//224 210//215
f 215//222 222//1 221//4 214//221
f 216//223 223//5 222//1 215//222
f 217//224 224//7 223//5 216//223
f 218//225 225//9 224//7 217//224
f 212//219 219//11 120//13
f 213//220 220//14 219//11 212//219
f 214//221 221//4 220//14 213//220
